<svg width="26" height="26" viewBox="0 0 26 26" fill="none" xmlns="http://www.w3.org/2000/svg">
<path d="M12.8616 12.1217H10.9957V8.73853H13.1349C14.426 8.73853 15.1516 9.34167 15.1516 10.3783V10.3971C15.1516 11.4903 14.3223 12.1217 12.8616 12.1217Z" />
<path d="M13.2386 17.6629H10.9957V13.9688H13.1726C14.8312 13.9688 15.5945 14.5719 15.5945 15.7687V15.7876C15.5945 17.0221 14.8406 17.6629 13.2386 17.6629Z"/>
<path fill-rule="evenodd" clip-rule="evenodd" d="M13 26C20.1797 26 26 20.1797 26 13C26 5.82031 20.1797 0 13 0C5.8203 0 0 5.82031 0 13C0 20.1797 5.8203 26 13 26ZM8.28165 6.68414V19.7173H10.7978V21.3665H11.7402V19.7173H13.1538V21.3665H14.0961V19.7173C16.7819 19.6419 18.4123 18.2378 18.4123 16.0043V15.9855C18.4123 14.308 17.1777 13.0358 15.4155 12.8756V12.8002C16.7914 12.574 17.7903 11.3961 17.7903 9.97305V9.95422C17.7903 8.04117 16.3767 6.79724 14.0961 6.69357V5.03497H13.1538V6.68414H11.7402V5.03497H10.7978V6.68414H8.28165Z"/>
</svg>
