<svg width="25" height="25" viewBox="0 0 25 25" fill="none" xmlns="http://www.w3.org/2000/svg">
<path d="M12 0.37561C13.8338 0.37561 15.5715 0.749559 17.126 1.41815C15.8256 2.51875 15 4.16296 15 6C15 9.31371 17.6863 12 21 12C22.0927 12 23.1172 11.7079 23.9996 11.1975C23.9999 11.2266 24 11.2556 24 11.2847C24 17.3096 18.6274 22.1938 12 22.1938C10.9839 22.1938 9.9973 22.079 9.0551 21.8629C8.87685 21.822 8.67443 22.0089 8.33653 22.3211C7.92794 22.6985 7.32125 23.2589 6.3196 23.8206C5.0397 24.5384 3.26647 24.4761 2.96637 24.3502C2.67864 24.2295 2.90012 23.9896 3.29016 23.5671C3.55997 23.2748 3.91044 22.8952 4.2288 22.4072C5.0073 21.2137 4.6856 19.7929 4.3363 19.5371C1.60509 17.5375 0 14.7209 0 11.2847C0 5.2598 5.3726 0.37561 12 0.37561Z" fill="#D9D9D9"/>
<path d="M21 10C23.2091 10 25 8.20914 25 6C25 3.79086 23.2091 2 21 2C18.7909 2 17 3.79086 17 6C17 8.20914 18.7909 10 21 10Z" fill="#D9D9D9"/>
</svg>
